<?xml version="1.0" encoding="UTF-8"?>
<svg xmlns="http://www.w3.org/2000/svg" width="980" height="420" viewBox="0 0 980 420">
<rect x="0" y="0" width="980" height="420" fill="#0b0f14"/>
<text x="260" y="34" font-family="ui-sans-serif, system-ui, -apple-system, Segoe UI, Roboto, Arial" font-size="20" font-weight="700" fill="#f0f6fc">Model Storage Breakdown</text>
<path d="M 250.0 230.0 L 250.0 90.0 A 140.0 140.0 0 0 1 325.7 347.8 Z" fill="#0969da" stroke="#0b0f14" stroke-width="2"/>
<path d="M 250.0 230.0 L 325.7 347.8 A 140.0 140.0 0 0 1 269.9 368.6 Z" fill="#1f883d" stroke="#0b0f14" stroke-width="2"/>
<path d="M 250.0 230.0 L 269.9 368.6 A 140.0 140.0 0 0 1 210.6 364.3 Z" fill="#bf8700" stroke="#0b0f14" stroke-width="2"/>
<path d="M 250.0 230.0 L 210.6 364.3 A 140.0 140.0 0 0 1 158.3 335.8 Z" fill="#cf222e" stroke="#0b0f14" stroke-width="2"/>
<path d="M 250.0 230.0 L 158.3 335.8 A 140.0 140.0 0 0 1 122.7 288.2 Z" fill="#8250df" stroke="#0b0f14" stroke-width="2"/>
<path d="M 250.0 230.0 L 122.7 288.2 A 140.0 140.0 0 0 1 110.0 230.0 Z" fill="#d4a72c" stroke="#0b0f14" stroke-width="2"/>
<path d="M 250.0 230.0 L 110.0 230.0 A 140.0 140.0 0 0 1 122.6 171.9 Z" fill="#0f766e" stroke="#0b0f14" stroke-width="2"/>
<path d="M 250.0 230.0 L 122.6 171.9 A 140.0 140.0 0 0 1 158.3 124.2 Z" fill="#fb7185" stroke="#0b0f14" stroke-width="2"/>
<path d="M 250.0 230.0 L 158.3 124.2 A 140.0 140.0 0 0 1 250.0 90.0 Z" fill="#8b949e" stroke="#0b0f14" stroke-width="2"/>
<circle cx="250.0" cy="230.0" r="140.0" fill="none" stroke="#30363d" stroke-width="1"/>
<text x="520.0" y="68.0" font-family="ui-sans-serif, system-ui, -apple-system, Segoe UI, Roboto, Arial" font-size="12" font-weight="700" fill="#f0f6fc">Legend (size, %)</text>
<rect x="520.0" y="82.0" width="12" height="12" rx="2" fill="#0969da"/>
<text x="538.0" y="92.0" font-family="ui-sans-serif, system-ui, -apple-system, Segoe UI, Roboto, Arial" font-size="12" fill="#f0f6fc">DeepMind-small-v2_20260215_212646.bundle  768.34 MB  (40.9%)</text>
<rect x="520.0" y="104.0" width="12" height="12" rx="2" fill="#1f883d"/>
<text x="538.0" y="114.0" font-family="ui-sans-serif, system-ui, -apple-system, Segoe UI, Roboto, Arial" font-size="12" fill="#f0f6fc">Seqent-DatasetCrawler-v1_MultiTrained.pt  128.06 MB  (6.8%)</text>
<rect x="520.0" y="126.0" width="12" height="12" rx="2" fill="#bf8700"/>
<text x="538.0" y="136.0" font-family="ui-sans-serif, system-ui, -apple-system, Segoe UI, Roboto, Arial" font-size="12" fill="#f0f6fc">RandomDataCrawler-v3.pt  128.06 MB  (6.8%)</text>
<rect x="520.0" y="148.0" width="12" height="12" rx="2" fill="#cf222e"/>
<text x="538.0" y="158.0" font-family="ui-sans-serif, system-ui, -apple-system, Segoe UI, Roboto, Arial" font-size="12" fill="#f0f6fc">Transistor-3D-v1.pt  128.06 MB  (6.8%)</text>
<rect x="520.0" y="170.0" width="12" height="12" rx="2" fill="#8250df"/>
<text x="538.0" y="180.0" font-family="ui-sans-serif, system-ui, -apple-system, Segoe UI, Roboto, Arial" font-size="12" fill="#f0f6fc">Resistor-3d-v1.pt  128.06 MB  (6.8%)</text>
<rect x="520.0" y="192.0" width="12" height="12" rx="2" fill="#d4a72c"/>
<text x="538.0" y="202.0" font-family="ui-sans-serif, system-ui, -apple-system, Segoe UI, Roboto, Arial" font-size="12" fill="#f0f6fc">Transistor-v1.pt  128.06 MB  (6.8%)</text>
<rect x="520.0" y="214.0" width="12" height="12" rx="2" fill="#0f766e"/>
<text x="538.0" y="224.0" font-family="ui-sans-serif, system-ui, -apple-system, Segoe UI, Roboto, Arial" font-size="12" fill="#f0f6fc">QFN-3D-v1.pt  128.06 MB  (6.8%)</text>
<rect x="520.0" y="236.0" width="12" height="12" rx="2" fill="#fb7185"/>
<text x="538.0" y="246.0" font-family="ui-sans-serif, system-ui, -apple-system, Segoe UI, Roboto, Arial" font-size="12" fill="#f0f6fc">Resistor-v1.pt  128.06 MB  (6.8%)</text>
<rect x="520.0" y="258.0" width="12" height="12" rx="2" fill="#8b949e"/>
<text x="538.0" y="268.0" font-family="ui-sans-serif, system-ui, -apple-system, Segoe UI, Roboto, Arial" font-size="12" fill="#f0f6fc">Other  213.50 MB  (11.4%)</text>
<text x="520.0" y="398" font-family="ui-sans-serif, system-ui, -apple-system, Segoe UI, Roboto, Arial" font-size="12" fill="#f0f6fc">Total: 1.83 GB</text>
</svg>
