<?xml version="1.0" encoding="UTF-8"?>
<svg xmlns="http://www.w3.org/2000/svg" width="980" height="196" viewBox="0 0 980 196">
<rect x="0" y="0" width="980" height="196" fill="#ffffff"/>
<text x="260" y="34" font-family="ui-sans-serif, system-ui, -apple-system, Segoe UI, Roboto, Arial" font-size="20" font-weight="700" fill="#24292f">Top Avg F1 (Top 15)</text>
<line x1="260" y1="56" x2="890" y2="56" stroke="#d0d7de" stroke-width="1"/>
<line x1="260" y1="89" x2="890" y2="89" stroke="#d0d7de" stroke-width="1" opacity="0.35"/>
<text x="250" y="80" text-anchor="end" font-family="ui-sans-serif, system-ui, -apple-system, Segoe UI, Roboto, Arial" font-size="12" fill="#24292f">DeepMind-small-v1_20260214_210452.bundle</text>
<rect x="260" y="70.0" width="630.0" height="14" rx="3" fill="#0969da"/>
<text x="896" y="80" text-anchor="start" font-family="ui-sans-serif, system-ui, -apple-system, Segoe UI, Roboto, Arial" font-size="12" fill="#24292f">0.9962</text>
<line x1="260" y1="115" x2="890" y2="115" stroke="#d0d7de" stroke-width="1" opacity="0.35"/>
<text x="250" y="106" text-anchor="end" font-family="ui-sans-serif, system-ui, -apple-system, Segoe UI, Roboto, Arial" font-size="12" fill="#24292f">Transistor-v1.pt</text>
<rect x="260" y="96.0" width="431.3" height="14" rx="3" fill="#54aeff"/>
<text x="896" y="106" text-anchor="start" font-family="ui-sans-serif, system-ui, -apple-system, Segoe UI, Roboto, Arial" font-size="12" fill="#24292f">0.6821</text>
<line x1="260" y1="141" x2="890" y2="141" stroke="#d0d7de" stroke-width="1" opacity="0.35"/>
<text x="250" y="132" text-anchor="end" font-family="ui-sans-serif, system-ui, -apple-system, Segoe UI, Roboto, Arial" font-size="12" fill="#24292f">QFN-v1.pt</text>
<rect x="260" y="122.0" width="395.7" height="14" rx="3" fill="#0969da"/>
<text x="896" y="132" text-anchor="start" font-family="ui-sans-serif, system-ui, -apple-system, Segoe UI, Roboto, Arial" font-size="12" fill="#24292f">0.6257</text>
<line x1="260" y1="167" x2="890" y2="167" stroke="#d0d7de" stroke-width="1" opacity="0.35"/>
<text x="250" y="158" text-anchor="end" font-family="ui-sans-serif, system-ui, -apple-system, Segoe UI, Roboto, Arial" font-size="12" fill="#24292f">Resistor-v1.pt</text>
<rect x="260" y="148.0" width="266.1" height="14" rx="3" fill="#54aeff"/>
<text x="896" y="158" text-anchor="start" font-family="ui-sans-serif, system-ui, -apple-system, Segoe UI, Roboto, Arial" font-size="12" fill="#24292f">0.4208</text>
</svg>
